# xmcd
#
# Track frame offsets: 
#        150
#        11447
#        27260
#        39840
#        51697
#        70007
#        85147
#        96687
#        112457
#        124907
#        141080
#        154932
#        171675
#        185640
#        200782
#        213085
#        227602
#        242980
#        255784
#        271467
#        283971
#        298613
#
# Disc length: 4177 seconds
#
# Revision: 0
# Processed by: cddbd v1.5.2PL0 Copyright (c) Steve Scherf et al.
# Submitted via: ExactAudioCopy v1.3
#
DISCID=5b104f16
DTITLE=Alan Jackson - The Very Best Of Alan Jackson, Vol 2
DYEAR=2005
DGENRE=Country
TTITLE0=Meat And Potato Man
TTITLE1=When Somebody Loves You
TTITLE2=The Thrill Is Back
TTITLE3=Www.memory
TTITLE4=Where I Come From
TTITLE5=I Still Love You
TTITLE6=Life Or Love
TTITLE7=A Love Like That
TTITLE8=It's Alright To Be A Redneck
TTITLE9=Maybe I Should Stay Here
TTITLE10=Three Minute Positive Not Too Country
TTITLE11=Fever
TTITLE12=Crying In THe Rain
TTITLE13=Lay Down Sally
TTITLE14=I'll Be THere (If You Ever Wanna)
TTITLE15=The Long Back Veil
TTITLE16=All I'm Missing Is You
TTITLE17=You're My Best Friend
TTITLE18=Till THe Rivers All Run Dry
TTITLE19=Some Broken Hearts Never Mend
TTITLE20=My Women's Love
TTITLE21=When I'm With You
EXTD=
EXTT0=
EXTT1=
EXTT2=
EXTT3=
EXTT4=
EXTT5=
EXTT6=
EXTT7=
EXTT8=
EXTT9=
EXTT10=
EXTT11=
EXTT12=
EXTT13=
EXTT14=
EXTT15=
EXTT16=
EXTT17=
EXTT18=
EXTT19=
EXTT20=
EXTT21=
PLAYORDER=
